<svg width="36" height="36" viewBox="0 0 36 36" fill="none" xmlns="http://www.w3.org/2000/svg">
<path d="M36.0005 18C36.0005 22.8079 34.1281 27.3277 30.7284 30.7279C27.3295 34.1268 22.8098 35.9992 18.0027 36H18.0005C13.1926 36 8.672 34.1277 5.27255 30.7279C1.87283 27.3277 0.000488281 22.8079 0.000488281 18C0.000488281 13.1921 1.87283 8.67151 5.27255 5.27206C8.672 1.87234 13.1926 0 18.0005 0H18.0027C22.8098 0.000823978 27.3295 1.87317 30.7284 5.27206C34.1281 8.67151 36.0005 13.1921 36.0005 18Z" fill="#FFFEFD"/>
<path d="M24.8036 15.5245C21.8392 17.2247 22.344 22.1874 25.5596 22.1874C26.9464 22.1874 28.1467 21.1448 28.6811 19.8119C29.9152 16.7336 27.3488 14.0643 24.8036 15.5245Z" fill="#FF7236"/>
<path d="M21.759 16.1391C25.3158 16.1391 26.3808 10.0992 23.0016 9.10618C21.4621 8.65392 19.7114 9.73911 19.1491 11.7228C18.5182 13.9463 19.7594 16.1391 21.759 16.1391Z" fill="#FF7236"/>
<path d="M20.8442 26.8903C20.3503 26.7537 19.4736 26.6658 18.556 26.6531C17.586 26.6389 16.5705 26.7084 15.9134 26.8903C14.1387 27.3847 11.724 26.1886 12.2538 23.7045C12.7439 21.408 14.5047 21.5389 14.9211 19.3625C15.3407 17.163 16.9711 16.1015 18.556 16.1844C20.0228 16.2614 21.4504 17.3192 21.8394 19.363C22.2534 21.5409 24.0106 21.4088 24.4999 23.7045C25.0317 26.1906 22.6118 27.3802 20.8442 26.8903Z" fill="#FF7236"/>
<path d="M15.4993 16.1393C16.5054 16.1393 17.3695 15.555 17.8496 14.6607C19.2769 12.0014 16.9327 8.32 14.2564 9.10841C10.8715 10.1041 11.9445 16.1393 15.4993 16.1393Z" fill="#FF7236"/>
<path d="M13.8914 20.21C15.0335 17.4157 12.3264 14.0024 9.741 15.0764C6.62675 16.3699 8.00028 21.9488 11.4245 21.9488C12.5234 21.9488 13.4573 21.2723 13.8914 20.21Z" fill="#FF7236"/>
<path d="M20.8441 26.8903C20.3502 26.7537 19.4735 26.6658 18.5559 26.6531V16.1844C20.0227 16.2614 21.4503 17.3192 21.8393 19.363C22.2533 21.5409 24.0105 21.4088 24.4999 23.7045C25.0316 26.1906 22.6118 27.3802 20.8441 26.8903Z" fill="#FF7236"/>
</svg>
